<?xml version="1.0" encoding="UTF-8" ?>
<!DOCTYPE svg PUBLIC "-//W3C//DTD SVG 1.1//EN" "http://www.w3.org/Graphics/SVG/1.1/DTD/svg11.dtd">
<svg width="975pt" height="567pt" viewBox="0 0 975 567" version="1.1" xmlns="http://www.w3.org/2000/svg">
<path fill="#e41937" d=" M 0.00 0.00 L 975.00 0.00 L 975.00 567.00 L 0.00 567.00 L 0.00 0.00 Z" />
<path fill="#ffffff" d=" M 247.60 158.60 C 272.18 142.45 301.60 133.87 331.00 133.99 C 350.42 133.95 369.73 137.28 388.39 142.52 C 399.79 145.84 411.11 149.72 421.64 155.26 C 421.63 176.83 421.66 198.40 421.63 219.97 C 402.34 207.50 381.47 196.89 358.88 192.02 C 339.68 187.79 319.08 188.32 300.67 195.59 C 280.34 203.44 263.44 219.49 254.27 239.22 C 240.26 268.12 243.75 304.86 263.92 330.03 C 277.69 347.63 298.56 359.17 320.55 362.62 C 343.21 366.17 366.65 361.26 386.96 350.92 C 399.35 344.85 410.43 336.53 420.95 327.68 C 421.00 349.70 421.09 371.72 420.91 393.74 C 402.75 404.42 382.65 411.59 362.06 415.82 C 346.99 419.02 331.46 419.76 316.13 418.46 C 288.09 415.65 260.99 404.58 238.89 387.12 C 215.48 368.82 197.58 343.33 189.07 314.81 C 180.40 286.05 181.91 254.49 192.55 226.46 C 203.01 198.72 222.79 174.76 247.60 158.60 Z" />
<path fill="#ffffff" d=" M 556.24 138.40 C 582.65 131.97 610.33 133.18 636.89 138.05 C 654.02 141.30 671.11 145.67 686.98 153.03 C 686.99 174.46 687.05 195.89 686.95 217.32 C 672.54 209.35 657.57 202.30 641.83 197.34 C 622.76 191.18 602.43 187.60 582.39 190.24 C 564.63 192.59 547.60 200.27 534.24 212.23 C 519.00 225.82 508.61 244.82 505.72 265.06 C 503.69 278.25 505.22 291.87 509.34 304.51 C 515.20 322.27 527.11 337.87 542.46 348.52 C 567.53 366.07 601.30 370.30 630.01 359.85 C 630.34 342.87 630.13 325.87 630.12 308.88 C 615.09 308.76 600.07 308.86 585.05 308.84 C 584.99 290.67 584.90 272.49 585.10 254.32 C 619.65 254.41 654.21 254.35 688.77 254.34 C 688.88 302.49 688.86 350.63 688.78 398.78 C 658.54 412.55 625.19 419.25 592.00 419.01 C 553.90 419.74 515.87 404.88 487.99 378.98 C 462.27 355.37 445.35 322.02 443.02 287.05 C 440.67 258.43 447.63 229.14 462.69 204.68 C 483.18 171.06 518.05 147.21 556.24 138.40 Z" />
<path fill="#ffffff" d=" M 733.02 139.02 C 752.67 138.99 772.33 138.99 791.99 139.02 C 792.01 230.67 792.01 322.33 791.98 413.98 C 772.33 414.01 752.67 414.01 733.02 413.98 C 732.99 322.33 732.99 230.67 733.02 139.02 Z" />
</svg>
